<svg xmlns="http://www.w3.org/2000/svg" width="32" height="32"><g fill="none" fill-rule="evenodd"><g fill-rule="nonzero"><path fill="#3C5A99" d="M28.454 28c.854 0 1.546-.692 1.546-1.546V1.546C30 .692 29.308 0 28.454 0H3.546C2.692 0 2 .692 2 1.546v24.908C2 27.308 2.692 28 3.546 28h24.908z"/><path fill="#FFF" d="M20.788 28V17.051h3.537l.528-4.264h-4.065V10.06c0-1.23.33-2.073 2.035-2.073H25V4.165A29.745 29.745 0 0021.854 4c-3.14 0-5.283 1.99-5.283 5.642v3.145H13v4.264h3.548V28h4.24z"/></g><g transform="translate(8 24)"><rect width="24" height="8" fill="#297EF1" rx="1"/><path fill="#FFF" d="M3.051 6.2V1.862h1.497c.284 0 .526.027.727.081.202.054.366.131.495.231.13.1.224.221.284.363.06.142.09.302.09.48a.95.95 0 01-.045.293.846.846 0 01-.14.26 1.045 1.045 0 01-.24.221 1.451 1.451 0 01-.346.168c.596.134.894.456.894.966 0 .184-.035.354-.105.51-.07.156-.172.29-.306.404a1.462 1.462 0 01-.495.265c-.196.064-.42.096-.672.096H3.051zm.807-1.902V5.57h.819c.15 0 .275-.018.376-.054a.654.654 0 00.243-.144.528.528 0 00.132-.21.792.792 0 00-.004-.508.475.475 0 00-.141-.192.66.66 0 00-.246-.122 1.361 1.361 0 00-.363-.042h-.816zm0-.558h.645c.274 0 .482-.05.624-.15.142-.1.213-.259.213-.477 0-.226-.064-.387-.192-.483-.128-.096-.328-.144-.6-.144h-.69V3.74zm7.038-1.878v.642H8.973v1.203h1.515v.621H8.973v1.227h1.923V6.2H8.16V1.862h2.736zm4.956 0v.663h-1.305V6.2h-.807V2.525h-1.311v-.663h3.423zM21.378 6.2h-.624a.273.273 0 01-.27-.183l-.324-.885h-1.797l-.324.885a.284.284 0 01-.267.183h-.627l1.704-4.338h.825L21.378 6.2zM18.57 4.562h1.383l-.528-1.443a6.59 6.59 0 01-.165-.51 9.996 9.996 0 01-.082.285 3.19 3.19 0 01-.08.231l-.528 1.437z"/></g></g></svg>